<mxfile host="65bd71144e">
    <diagram id="8-Jw_1EedREtLOCVb7j7" name="Page-1">
        <mxGraphModel dx="1716" dy="408" grid="1" gridSize="10" guides="1" tooltips="1" connect="1" arrows="1" fold="1" page="1" pageScale="1" pageWidth="827" pageHeight="1169" math="0" shadow="0">
            <root>
                <mxCell id="0"/>
                <mxCell id="1" parent="0"/>
                <UserObject label="user" lucidchartObjectId="mmy3dTOki7hX" id="Qr3YYHrDjEiWuKODfuZc-3">
                    <mxCell style="html=1;overflow=block;blockSpacing=1;whiteSpace=wrap;shape=cylinder3;size=4;anchorPointDirection=0;boundedLbl=1;;whiteSpace=wrap;fontSize=13;spacing=3.8;strokeOpacity=100;strokeWidth=1;rounded=1;" parent="1" vertex="1">
                        <mxGeometry x="75" y="90" width="90" height="90" as="geometry"/>
                    </mxCell>
                </UserObject>
                <UserObject label="Collection" lucidchartObjectId="5my3IYHWVRgI" id="Qr3YYHrDjEiWuKODfuZc-4">
                    <mxCell style="html=1;overflow=block;blockSpacing=1;whiteSpace=wrap;;whiteSpace=wrap;fontSize=13;spacing=3.8;strokeOpacity=0;fillOpacity=0;strokeWidth=1;rounded=1;" parent="1" vertex="1">
                        <mxGeometry x="75" y="60" width="90" height="30" as="geometry"/>
                    </mxCell>
                </UserObject>
                <UserObject label="" lucidchartObjectId="xny3rrUCnjT7" id="Qr3YYHrDjEiWuKODfuZc-5">
                    <mxCell style="html=1;jettySize=18;whiteSpace=wrap;fontSize=13;strokeOpacity=100;strokeWidth=1;arcSize=0;edgeStyle=orthogonalEdgeStyle;startArrow=none;;endArrow=block;endFill=1;;exitX=1.008;exitY=0.5;exitPerimeter=0;entryX=-0.006;entryY=0.5;entryPerimeter=0;" parent="1" source="Qr3YYHrDjEiWuKODfuZc-3" target="Qr3YYHrDjEiWuKODfuZc-6" edge="1">
                        <mxGeometry width="100" height="100" relative="1" as="geometry">
                            <Array as="points"/>
                        </mxGeometry>
                    </mxCell>
                </UserObject>
                <UserObject label="{uid}" lucidchartObjectId="Hny3x1uMi4Uz" id="Qr3YYHrDjEiWuKODfuZc-6">
                    <mxCell style="html=1;overflow=block;blockSpacing=1;whiteSpace=wrap;;whiteSpace=wrap;fontSize=13;spacing=9;strokeOpacity=100;strokeWidth=1;rounded=1;" parent="1" vertex="1">
                        <mxGeometry x="240" y="105" width="120" height="60" as="geometry"/>
                    </mxCell>
                </UserObject>
                <UserObject label="Document" lucidchartObjectId="Mpy3mYbmSKPU" id="Qr3YYHrDjEiWuKODfuZc-7">
                    <mxCell style="html=1;overflow=block;blockSpacing=1;whiteSpace=wrap;;whiteSpace=wrap;fontSize=13;spacing=3.8;strokeOpacity=0;fillOpacity=0;strokeWidth=1;rounded=1;" parent="1" vertex="1">
                        <mxGeometry x="240" y="75" width="120" height="30" as="geometry"/>
                    </mxCell>
                </UserObject>
                <UserObject label="sgName &amp;lt;String&amp;gt;" lucidchartObjectId="Wqy3z_dKGQzi" id="Qr3YYHrDjEiWuKODfuZc-8">
                    <mxCell style="html=1;overflow=block;blockSpacing=1;whiteSpace=wrap;;whiteSpace=wrap;fontSize=13;align=left;spacing=3.8;strokeOpacity=0;fillOpacity=0;strokeWidth=1;rounded=1;" parent="1" vertex="1">
                        <mxGeometry x="660" y="165" width="120" height="30" as="geometry"/>
                    </mxCell>
                </UserObject>
                <UserObject label="sgId &amp;lt;String&amp;gt;" lucidchartObjectId="Dry3GZ_q2NKs" id="Qr3YYHrDjEiWuKODfuZc-9">
                    <mxCell style="html=1;overflow=block;blockSpacing=1;whiteSpace=wrap;;whiteSpace=wrap;fontSize=13;align=left;spacing=3.8;strokeOpacity=0;fillOpacity=0;strokeWidth=1;rounded=1;" parent="1" vertex="1">
                        <mxGeometry x="660" y="195" width="120" height="30" as="geometry"/>
                    </mxCell>
                </UserObject>
                <UserObject label="sgDesc &amp;lt;String&amp;gt;" lucidchartObjectId="Mry38XwumOOn" id="Qr3YYHrDjEiWuKODfuZc-10">
                    <mxCell style="html=1;overflow=block;blockSpacing=1;whiteSpace=wrap;;whiteSpace=wrap;fontSize=13;align=left;spacing=3.8;strokeOpacity=0;fillOpacity=0;strokeWidth=1;rounded=1;" parent="1" vertex="1">
                        <mxGeometry x="660" y="225" width="120" height="30" as="geometry"/>
                    </mxCell>
                </UserObject>
                <UserObject label="sgPathName &amp;lt;String&amp;gt;" lucidchartObjectId="_ry3LpoxDpER" id="Qr3YYHrDjEiWuKODfuZc-11">
                    <mxCell style="html=1;overflow=block;blockSpacing=1;whiteSpace=wrap;;whiteSpace=wrap;fontSize=13;align=left;spacing=3.8;strokeOpacity=0;fillOpacity=0;strokeWidth=1;rounded=1;" parent="1" vertex="1">
                        <mxGeometry x="660" y="250" width="150" height="40" as="geometry"/>
                    </mxCell>
                </UserObject>
                <UserObject label="sgNestSnippetList &amp;lt;List&amp;lt;Map&amp;lt;String, dynamic&amp;gt;&amp;gt;&amp;gt;" lucidchartObjectId="qty3Bl9jq2o." id="Qr3YYHrDjEiWuKODfuZc-12">
                    <mxCell style="html=1;overflow=block;blockSpacing=1;whiteSpace=wrap;;whiteSpace=wrap;fontSize=13;align=left;spacing=3.8;strokeOpacity=0;fillOpacity=0;strokeWidth=1;rounded=1;" parent="1" vertex="1">
                        <mxGeometry x="660" y="335" width="315" height="40" as="geometry"/>
                    </mxCell>
                </UserObject>
                <UserObject label="" lucidchartObjectId="euy3g.25O3H~" id="Qr3YYHrDjEiWuKODfuZc-13">
                    <mxCell style="html=1;jettySize=18;whiteSpace=wrap;fontSize=13;strokeOpacity=100;strokeWidth=1;arcSize=0;edgeStyle=orthogonalEdgeStyle;startArrow=none;;endArrow=block;endFill=1;;exitX=0;exitY=0.5;exitPerimeter=0;entryX=0;entryY=0.5;entryPerimeter=0;" parent="1" source="Qr3YYHrDjEiWuKODfuZc-12" target="Qr3YYHrDjEiWuKODfuZc-14" edge="1">
                        <mxGeometry width="100" height="100" relative="1" as="geometry">
                            <Array as="points">
                                <mxPoint x="560" y="355"/>
                                <mxPoint x="560" y="385"/>
                            </Array>
                        </mxGeometry>
                    </mxCell>
                </UserObject>
                <UserObject label="sgName" lucidchartObjectId="guy3xirxiTe0" id="Qr3YYHrDjEiWuKODfuZc-14">
                    <mxCell style="html=1;overflow=block;blockSpacing=1;whiteSpace=wrap;;whiteSpace=wrap;fontSize=13;align=left;spacing=3.8;strokeOpacity=0;fillOpacity=0;strokeWidth=1;rounded=1;" parent="1" vertex="1">
                        <mxGeometry x="592" y="365" width="60" height="40" as="geometry"/>
                    </mxCell>
                </UserObject>
                <UserObject label="sgId" lucidchartObjectId="tuy3rChsDqxw" id="Qr3YYHrDjEiWuKODfuZc-15">
                    <mxCell style="html=1;overflow=block;blockSpacing=1;whiteSpace=wrap;;whiteSpace=wrap;fontSize=13;align=left;spacing=3.8;strokeOpacity=0;fillOpacity=0;strokeWidth=1;rounded=1;" parent="1" vertex="1">
                        <mxGeometry x="592" y="395" width="60" height="40" as="geometry"/>
                    </mxCell>
                </UserObject>
                <UserObject label="sgImgId" lucidchartObjectId="yuy3l9~mQKdI" id="Qr3YYHrDjEiWuKODfuZc-16">
                    <mxCell style="html=1;overflow=block;blockSpacing=1;whiteSpace=wrap;;whiteSpace=wrap;fontSize=13;align=left;spacing=3.8;strokeOpacity=0;fillOpacity=0;strokeWidth=1;rounded=1;" parent="1" vertex="1">
                        <mxGeometry x="592" y="425" width="60" height="40" as="geometry"/>
                    </mxCell>
                </UserObject>
                <UserObject label="itemSnippetList &amp;lt;List&amp;lt;Map&amp;lt;String,dynamic&amp;gt;&amp;gt;&amp;gt;" lucidchartObjectId="avy3ZTvgRfwI" id="Qr3YYHrDjEiWuKODfuZc-17">
                    <mxCell style="html=1;overflow=block;blockSpacing=1;whiteSpace=wrap;;whiteSpace=wrap;fontSize=13;align=left;spacing=3.8;strokeOpacity=0;fillOpacity=0;strokeWidth=1;rounded=1;" parent="1" vertex="1">
                        <mxGeometry x="660" y="365" width="300" height="40" as="geometry"/>
                    </mxCell>
                </UserObject>
                <UserObject label="" lucidchartObjectId="Wvy3BF.tzllh" id="Qr3YYHrDjEiWuKODfuZc-18">
                    <mxCell style="html=1;jettySize=18;whiteSpace=wrap;fontSize=13;strokeOpacity=100;strokeWidth=1;arcSize=0;edgeStyle=orthogonalEdgeStyle;startArrow=none;;endArrow=block;endFill=1;;exitX=1.006;exitY=0.5;exitPerimeter=0;entryX=-0.006;entryY=0.5;entryPerimeter=0;" parent="1" source="Qr3YYHrDjEiWuKODfuZc-6" target="Qr3YYHrDjEiWuKODfuZc-19" edge="1">
                        <mxGeometry width="100" height="100" relative="1" as="geometry">
                            <Array as="points"/>
                        </mxGeometry>
                    </mxCell>
                </UserObject>
                <UserObject label="storaygeGroupList" lucidchartObjectId="qxy3zKsZ.FIV" id="Qr3YYHrDjEiWuKODfuZc-19">
                    <mxCell style="html=1;overflow=block;blockSpacing=1;whiteSpace=wrap;shape=cylinder3;size=4;anchorPointDirection=0;boundedLbl=1;;whiteSpace=wrap;fontSize=13;spacing=3.8;strokeOpacity=100;strokeWidth=1;rounded=1;" parent="1" vertex="1">
                        <mxGeometry x="465" y="90" width="135" height="90" as="geometry"/>
                    </mxCell>
                </UserObject>
                <UserObject label="Collection" lucidchartObjectId="Txy3VzWE5caS" id="Qr3YYHrDjEiWuKODfuZc-20">
                    <mxCell style="html=1;overflow=block;blockSpacing=1;whiteSpace=wrap;;whiteSpace=wrap;fontSize=13;spacing=3.8;strokeOpacity=0;fillOpacity=0;strokeWidth=1;rounded=1;" parent="1" vertex="1">
                        <mxGeometry x="488" y="60" width="90" height="30" as="geometry"/>
                    </mxCell>
                </UserObject>
                <UserObject label="{sgId}" lucidchartObjectId="1xy32YT1yPWB" id="Qr3YYHrDjEiWuKODfuZc-21">
                    <mxCell style="html=1;overflow=block;blockSpacing=1;whiteSpace=wrap;;whiteSpace=wrap;fontSize=13;spacing=9;strokeOpacity=100;strokeWidth=1;rounded=1;" parent="1" vertex="1">
                        <mxGeometry x="659" y="105" width="120" height="60" as="geometry"/>
                    </mxCell>
                </UserObject>
                <UserObject label="" lucidchartObjectId="byy3ykdQEx8u" id="Qr3YYHrDjEiWuKODfuZc-22">
                    <mxCell style="html=1;jettySize=18;whiteSpace=wrap;fontSize=13;strokeOpacity=100;strokeWidth=1;arcSize=0;edgeStyle=orthogonalEdgeStyle;startArrow=none;;endArrow=block;endFill=1;;exitX=1.006;exitY=0.5;exitPerimeter=0;entryX=-0.006;entryY=0.5;entryPerimeter=0;" parent="1" source="Qr3YYHrDjEiWuKODfuZc-19" target="Qr3YYHrDjEiWuKODfuZc-21" edge="1">
                        <mxGeometry width="100" height="100" relative="1" as="geometry">
                            <Array as="points"/>
                        </mxGeometry>
                    </mxCell>
                </UserObject>
                <UserObject label="Document" lucidchartObjectId="eyy3GpAazgn0" id="Qr3YYHrDjEiWuKODfuZc-23">
                    <mxCell style="html=1;overflow=block;blockSpacing=1;whiteSpace=wrap;;whiteSpace=wrap;fontSize=13;spacing=3.8;strokeOpacity=0;fillOpacity=0;strokeWidth=1;rounded=1;" parent="1" vertex="1">
                        <mxGeometry x="659" y="75" width="120" height="30" as="geometry"/>
                    </mxCell>
                </UserObject>
                <UserObject label="email &amp;lt;String&amp;gt;" lucidchartObjectId="szy3hm6Eg7cN" id="Qr3YYHrDjEiWuKODfuZc-24">
                    <mxCell style="html=1;overflow=block;blockSpacing=1;whiteSpace=wrap;;whiteSpace=wrap;fontSize=13;align=left;spacing=3.8;strokeOpacity=0;fillOpacity=0;strokeWidth=1;rounded=1;" parent="1" vertex="1">
                        <mxGeometry x="240" y="165" width="120" height="30" as="geometry"/>
                    </mxCell>
                </UserObject>
                <UserObject label="username &amp;lt;String&amp;gt;" lucidchartObjectId="Azy33eUq6oV6" id="Qr3YYHrDjEiWuKODfuZc-25">
                    <mxCell style="html=1;overflow=block;blockSpacing=1;whiteSpace=wrap;;whiteSpace=wrap;fontSize=13;align=left;spacing=3.8;strokeOpacity=0;fillOpacity=0;strokeWidth=1;rounded=1;" parent="1" vertex="1">
                        <mxGeometry x="240" y="190" width="150" height="40" as="geometry"/>
                    </mxCell>
                </UserObject>
                <UserObject label="uid &amp;lt;String&amp;gt;" lucidchartObjectId="Pzy3j5PoiYy8" id="Qr3YYHrDjEiWuKODfuZc-26">
                    <mxCell style="html=1;overflow=block;blockSpacing=1;whiteSpace=wrap;;whiteSpace=wrap;fontSize=13;align=left;spacing=3.8;strokeOpacity=0;fillOpacity=0;strokeWidth=1;rounded=1;" parent="1" vertex="1">
                        <mxGeometry x="240" y="220" width="150" height="40" as="geometry"/>
                    </mxCell>
                </UserObject>
                <UserObject label="management" lucidchartObjectId="_Ay3SFYHhvqD" id="Qr3YYHrDjEiWuKODfuZc-27">
                    <mxCell style="html=1;overflow=block;blockSpacing=1;whiteSpace=wrap;shape=cylinder3;size=4;anchorPointDirection=0;boundedLbl=1;;whiteSpace=wrap;fontSize=13;spacing=3.8;strokeOpacity=100;strokeWidth=1;rounded=1;" parent="1" vertex="1">
                        <mxGeometry x="465" y="465" width="135" height="90" as="geometry"/>
                    </mxCell>
                </UserObject>
                <UserObject label="Collection" lucidchartObjectId="_Ay3XqaMu-Sj" id="Qr3YYHrDjEiWuKODfuZc-28">
                    <mxCell style="html=1;overflow=block;blockSpacing=1;whiteSpace=wrap;;whiteSpace=wrap;fontSize=13;spacing=3.8;strokeOpacity=0;fillOpacity=0;strokeWidth=1;rounded=1;" parent="1" vertex="1">
                        <mxGeometry x="488" y="435" width="90" height="30" as="geometry"/>
                    </mxCell>
                </UserObject>
                <UserObject label="" lucidchartObjectId="jBy3DvbcQuUk" id="Qr3YYHrDjEiWuKODfuZc-29">
                    <mxCell style="html=1;jettySize=18;whiteSpace=wrap;fontSize=13;strokeOpacity=100;strokeWidth=1;arcSize=0;edgeStyle=orthogonalEdgeStyle;startArrow=none;;endArrow=block;endFill=1;;exitX=1.006;exitY=0.5;exitPerimeter=0;entryX=-0.006;entryY=0.5;entryPerimeter=0;" parent="1" source="Qr3YYHrDjEiWuKODfuZc-6" target="Qr3YYHrDjEiWuKODfuZc-27" edge="1">
                        <mxGeometry width="100" height="100" relative="1" as="geometry">
                            <Array as="points"/>
                        </mxGeometry>
                    </mxCell>
                </UserObject>
                <UserObject label="sgHomeList" lucidchartObjectId="vCy3nsV9MbSi" id="Qr3YYHrDjEiWuKODfuZc-30">
                    <mxCell style="html=1;overflow=block;blockSpacing=1;whiteSpace=wrap;;whiteSpace=wrap;fontSize=13;spacing=9;strokeOpacity=100;strokeWidth=1;rounded=1;" parent="1" vertex="1">
                        <mxGeometry x="760" y="480" width="120" height="60" as="geometry"/>
                    </mxCell>
                </UserObject>
                <UserObject label="" lucidchartObjectId="BCy36pta_Ylv" id="Qr3YYHrDjEiWuKODfuZc-31">
                    <mxCell style="html=1;jettySize=18;whiteSpace=wrap;fontSize=13;strokeOpacity=100;strokeWidth=1;arcSize=0;edgeStyle=orthogonalEdgeStyle;startArrow=none;;endArrow=block;endFill=1;;exitX=1.006;exitY=0.5;exitPerimeter=0;entryX=-0.006;entryY=0.5;entryPerimeter=0;" parent="1" source="Qr3YYHrDjEiWuKODfuZc-27" target="Qr3YYHrDjEiWuKODfuZc-30" edge="1">
                        <mxGeometry width="100" height="100" relative="1" as="geometry">
                            <Array as="points"/>
                        </mxGeometry>
                    </mxCell>
                </UserObject>
                <UserObject label="Document" lucidchartObjectId="ECy37WejbMx6" id="Qr3YYHrDjEiWuKODfuZc-32">
                    <mxCell style="html=1;overflow=block;blockSpacing=1;whiteSpace=wrap;;whiteSpace=wrap;fontSize=13;spacing=3.8;strokeOpacity=0;fillOpacity=0;strokeWidth=1;rounded=1;" parent="1" vertex="1">
                        <mxGeometry x="760" y="450" width="120" height="30" as="geometry"/>
                    </mxCell>
                </UserObject>
                <UserObject label="storaygeGroupList" lucidchartObjectId="9Iy3x5hWu4gv" id="Qr3YYHrDjEiWuKODfuZc-33">
                    <mxCell style="html=1;overflow=block;blockSpacing=1;whiteSpace=wrap;shape=cylinder3;size=4;anchorPointDirection=0;boundedLbl=1;;whiteSpace=wrap;fontSize=13;spacing=3.8;strokeOpacity=100;strokeWidth=1;rounded=1;" parent="1" vertex="1">
                        <mxGeometry x="840" y="90" width="135" height="90" as="geometry"/>
                    </mxCell>
                </UserObject>
                <UserObject label="Recurring Collection" lucidchartObjectId="9Iy3~OmA4JU_" id="Qr3YYHrDjEiWuKODfuZc-34">
                    <mxCell style="html=1;overflow=block;blockSpacing=1;whiteSpace=wrap;;whiteSpace=wrap;fontSize=13;spacing=3.8;strokeOpacity=0;fillOpacity=0;strokeWidth=1;rounded=1;" parent="1" vertex="1">
                        <mxGeometry x="840" y="55" width="135" height="40" as="geometry"/>
                    </mxCell>
                </UserObject>
                <UserObject label="" lucidchartObjectId="aJy3yjm7Ja3q" id="Qr3YYHrDjEiWuKODfuZc-35">
                    <mxCell style="html=1;jettySize=18;whiteSpace=wrap;fontSize=13;strokeOpacity=100;strokeWidth=1;arcSize=0;edgeStyle=orthogonalEdgeStyle;startArrow=none;;endArrow=block;endFill=1;;exitX=1.006;exitY=0.5;exitPerimeter=0;entryX=-0.006;entryY=0.5;entryPerimeter=0;" parent="1" source="Qr3YYHrDjEiWuKODfuZc-21" target="Qr3YYHrDjEiWuKODfuZc-33" edge="1">
                        <mxGeometry width="100" height="100" relative="1" as="geometry">
                            <Array as="points"/>
                        </mxGeometry>
                    </mxCell>
                </UserObject>
                <UserObject label="Map" lucidchartObjectId="nwC3J_Ml8fYd" id="Qr3YYHrDjEiWuKODfuZc-36">
                    <mxCell style="html=1;overflow=block;blockSpacing=1;whiteSpace=wrap;shape=cylinder3;boundedLbl=1;size=15;lid=0;direction=south;;whiteSpace=wrap;fontSize=13;spacing=3.8;strokeOpacity=100;strokeWidth=1;rounded=1;" parent="1" vertex="1">
                        <mxGeometry x="760" y="575" width="120" height="40" as="geometry"/>
                    </mxCell>
                </UserObject>
                <UserObject label="Map" lucidchartObjectId="twC35znS._r4" id="Qr3YYHrDjEiWuKODfuZc-37">
                    <mxCell style="html=1;overflow=block;blockSpacing=1;whiteSpace=wrap;shape=cylinder3;boundedLbl=1;size=15;lid=0;direction=south;;whiteSpace=wrap;fontSize=13;spacing=3.8;strokeOpacity=100;strokeWidth=1;rounded=1;" parent="1" vertex="1">
                        <mxGeometry x="-250" y="477.5" width="75" height="50" as="geometry"/>
                    </mxCell>
                </UserObject>
                <UserObject label="collection" lucidchartObjectId="IwC35Dz-5HWC" id="Qr3YYHrDjEiWuKODfuZc-38">
                    <mxCell style="html=1;overflow=block;blockSpacing=1;whiteSpace=wrap;shape=cylinder3;size=4;anchorPointDirection=0;boundedLbl=1;;whiteSpace=wrap;fontSize=13;spacing=3.8;strokeOpacity=100;strokeWidth=1;rounded=1;" parent="1" vertex="1">
                        <mxGeometry x="-160" y="477.5" width="60" height="50" as="geometry"/>
                    </mxCell>
                </UserObject>
                <UserObject label="document" lucidchartObjectId="UwC37opkIJtW" id="Qr3YYHrDjEiWuKODfuZc-39">
                    <mxCell style="html=1;overflow=block;blockSpacing=1;whiteSpace=wrap;;whiteSpace=wrap;fontSize=13;spacing=9;strokeOpacity=100;strokeWidth=1;rounded=1;" parent="1" vertex="1">
                        <mxGeometry x="-250" y="542.5" width="75" height="45" as="geometry"/>
                    </mxCell>
                </UserObject>
                <UserObject label="" lucidchartObjectId="CxC3GX9UYJbb" id="Qr3YYHrDjEiWuKODfuZc-40">
                    <mxCell style="html=1;jettySize=18;whiteSpace=wrap;fontSize=13;strokeOpacity=100;strokeWidth=1;arcSize=0;edgeStyle=orthogonalEdgeStyle;startArrow=none;;endArrow=block;endFill=1;;exitX=0.5;exitY=1.013;exitPerimeter=0;entryX=0.506;entryY=-0.019;entryPerimeter=0;" parent="1" source="Qr3YYHrDjEiWuKODfuZc-30" target="Qr3YYHrDjEiWuKODfuZc-36" edge="1">
                        <mxGeometry width="100" height="100" relative="1" as="geometry">
                            <Array as="points"/>
                        </mxGeometry>
                    </mxCell>
                </UserObject>
                <UserObject label="sgId &amp;lt;String&amp;gt;" lucidchartObjectId="oyC3zMAZTe1E" id="Qr3YYHrDjEiWuKODfuZc-41">
                    <mxCell style="html=1;overflow=block;blockSpacing=1;whiteSpace=wrap;;whiteSpace=wrap;fontSize=13;align=left;spacing=3.8;strokeOpacity=0;fillOpacity=0;strokeWidth=1;rounded=1;" parent="1" vertex="1">
                        <mxGeometry x="760" y="615" width="120" height="30" as="geometry"/>
                    </mxCell>
                </UserObject>
                <UserObject label="sgName &amp;lt;String&amp;gt;" lucidchartObjectId="uyC3QwUn~3nn" id="Qr3YYHrDjEiWuKODfuZc-42">
                    <mxCell style="html=1;overflow=block;blockSpacing=1;whiteSpace=wrap;;whiteSpace=wrap;fontSize=13;align=left;spacing=3.8;strokeOpacity=0;fillOpacity=0;strokeWidth=1;rounded=1;" parent="1" vertex="1">
                        <mxGeometry x="760" y="645" width="120" height="30" as="geometry"/>
                    </mxCell>
                </UserObject>
                <UserObject label="sgImgId &amp;lt;String&amp;gt;" lucidchartObjectId="MyC3wRzRbQ.4" id="Qr3YYHrDjEiWuKODfuZc-43">
                    <mxCell style="html=1;overflow=block;blockSpacing=1;whiteSpace=wrap;;whiteSpace=wrap;fontSize=13;align=left;spacing=3.8;strokeOpacity=0;fillOpacity=0;strokeWidth=1;rounded=1;" parent="1" vertex="1">
                        <mxGeometry x="760" y="705" width="119" height="30" as="geometry"/>
                    </mxCell>
                </UserObject>
                <UserObject label="sgList List&amp;lt;Map&amp;lt;String, dynamic&amp;gt;" lucidchartObjectId="WzC3jf8TJhhV" id="Qr3YYHrDjEiWuKODfuZc-44">
                    <mxCell style="html=1;overflow=block;blockSpacing=1;whiteSpace=wrap;;whiteSpace=wrap;fontSize=13;align=left;spacing=3.8;strokeOpacity=0;fillOpacity=0;strokeWidth=1;rounded=1;" parent="1" vertex="1">
                        <mxGeometry x="761" y="735" width="224" height="30" as="geometry"/>
                    </mxCell>
                </UserObject>
                <UserObject label="isExpanded &amp;lt;bool&amp;gt;" lucidchartObjectId="gCC3wc~ug9g6" id="Qr3YYHrDjEiWuKODfuZc-45">
                    <mxCell style="html=1;overflow=block;blockSpacing=1;whiteSpace=wrap;;whiteSpace=wrap;fontSize=13;align=left;spacing=3.8;strokeOpacity=0;fillOpacity=0;strokeWidth=1;rounded=1;" parent="1" vertex="1">
                        <mxGeometry x="761" y="760" width="179" height="40" as="geometry"/>
                    </mxCell>
                </UserObject>
                <mxCell id="4" style="edgeStyle=orthogonalEdgeStyle;rounded=0;orthogonalLoop=1;jettySize=auto;html=1;entryX=1;entryY=0.5;entryDx=0;entryDy=0;" parent="1" source="Qr3YYHrDjEiWuKODfuZc-46" target="3" edge="1">
                    <mxGeometry relative="1" as="geometry">
                        <Array as="points">
                            <mxPoint x="533" y="710"/>
                        </Array>
                    </mxGeometry>
                </mxCell>
                <UserObject label="sgAllList" lucidchartObjectId="VNC3Fkf0FXq5" id="Qr3YYHrDjEiWuKODfuZc-46">
                    <mxCell style="html=1;overflow=block;blockSpacing=1;whiteSpace=wrap;;whiteSpace=wrap;fontSize=13;spacing=9;strokeOpacity=100;strokeWidth=1;rounded=1;" parent="1" vertex="1">
                        <mxGeometry x="473" y="615" width="120" height="60" as="geometry"/>
                    </mxCell>
                </UserObject>
                <UserObject label="Document" lucidchartObjectId="VNC3r3SY.07v" id="Qr3YYHrDjEiWuKODfuZc-47">
                    <mxCell style="html=1;overflow=block;blockSpacing=1;whiteSpace=wrap;;whiteSpace=wrap;fontSize=13;spacing=3.8;strokeOpacity=0;fillOpacity=0;strokeWidth=1;rounded=1;" parent="1" vertex="1">
                        <mxGeometry x="473" y="585" width="120" height="30" as="geometry"/>
                    </mxCell>
                </UserObject>
                <UserObject label="" lucidchartObjectId="OWC3.R1w2t58" id="Qr3YYHrDjEiWuKODfuZc-48">
                    <mxCell style="html=1;jettySize=18;whiteSpace=wrap;fontSize=13;strokeOpacity=100;strokeWidth=1;arcSize=0;edgeStyle=orthogonalEdgeStyle;startArrow=none;;endArrow=block;endFill=1;;exitX=0.5;exitY=1.008;exitPerimeter=0;entryX=-0.006;entryY=0.5;entryPerimeter=0;" parent="1" source="Qr3YYHrDjEiWuKODfuZc-27" target="Qr3YYHrDjEiWuKODfuZc-46" edge="1">
                        <mxGeometry width="100" height="100" relative="1" as="geometry">
                            <Array as="points"/>
                        </mxGeometry>
                    </mxCell>
                </UserObject>
                <UserObject label="Map" lucidchartObjectId="42C3rV8qbzWb" id="Qr3YYHrDjEiWuKODfuZc-49">
                    <mxCell style="html=1;overflow=block;blockSpacing=1;whiteSpace=wrap;shape=cylinder3;boundedLbl=1;size=15;lid=0;direction=south;;whiteSpace=wrap;fontSize=13;spacing=3.8;strokeOpacity=100;strokeWidth=1;rounded=1;" parent="1" vertex="1">
                        <mxGeometry x="473" y="750" width="120" height="40" as="geometry"/>
                    </mxCell>
                </UserObject>
                <UserObject label="" lucidchartObjectId="d3C3gRHGU2vB" id="Qr3YYHrDjEiWuKODfuZc-50">
                    <mxCell style="html=1;jettySize=18;whiteSpace=wrap;fontSize=13;strokeOpacity=100;strokeWidth=1;arcSize=0;edgeStyle=orthogonalEdgeStyle;startArrow=none;;endArrow=block;endFill=1;;exitX=0.5;exitY=1.013;exitPerimeter=0;entryX=0;entryY=0.5;entryPerimeter=0;entryDx=0;entryDy=0;" parent="1" source="Qr3YYHrDjEiWuKODfuZc-46" target="Qr3YYHrDjEiWuKODfuZc-49" edge="1">
                        <mxGeometry width="100" height="100" relative="1" as="geometry">
                            <Array as="points"/>
                        </mxGeometry>
                    </mxCell>
                </UserObject>
                <UserObject label="sgId &amp;lt;String&amp;gt;" lucidchartObjectId="h3C3qkQNhd2T" id="Qr3YYHrDjEiWuKODfuZc-51">
                    <mxCell style="html=1;overflow=block;blockSpacing=1;whiteSpace=wrap;;whiteSpace=wrap;fontSize=13;align=left;spacing=3.8;strokeOpacity=0;fillOpacity=0;strokeWidth=1;rounded=1;" parent="1" vertex="1">
                        <mxGeometry x="473" y="795" width="120" height="30" as="geometry"/>
                    </mxCell>
                </UserObject>
                <UserObject label="sgName &amp;lt;String&amp;gt;" lucidchartObjectId="h3C30b7JtQnB" id="Qr3YYHrDjEiWuKODfuZc-52">
                    <mxCell style="html=1;overflow=block;blockSpacing=1;whiteSpace=wrap;;whiteSpace=wrap;fontSize=13;align=left;spacing=3.8;strokeOpacity=0;fillOpacity=0;strokeWidth=1;rounded=1;" parent="1" vertex="1">
                        <mxGeometry x="473" y="825" width="120" height="30" as="geometry"/>
                    </mxCell>
                </UserObject>
                <UserObject label="sgImgId &amp;lt;String&amp;gt;" lucidchartObjectId="h3C3wAD9uutI" id="Qr3YYHrDjEiWuKODfuZc-53">
                    <mxCell style="html=1;overflow=block;blockSpacing=1;whiteSpace=wrap;;whiteSpace=wrap;fontSize=13;align=left;spacing=3.8;strokeOpacity=0;fillOpacity=0;strokeWidth=1;rounded=1;" parent="1" vertex="1">
                        <mxGeometry x="473" y="855" width="119" height="30" as="geometry"/>
                    </mxCell>
                </UserObject>
                <mxCell id="pG1kj_97MBF_nM1RWKhJ-25" style="edgeStyle=orthogonalEdgeStyle;rounded=0;orthogonalLoop=1;jettySize=auto;html=1;strokeWidth=2;" parent="1" source="Qr3YYHrDjEiWuKODfuZc-54" target="Qr3YYHrDjEiWuKODfuZc-55" edge="1">
                    <mxGeometry relative="1" as="geometry"/>
                </mxCell>
                <UserObject label="ListScreen" lucidchartObjectId="mEy3ORFoB5f1" id="Qr3YYHrDjEiWuKODfuZc-54">
                    <mxCell style="html=1;overflow=block;blockSpacing=1;whiteSpace=wrap;shape=hexagon;perimeter=hexagonPerimeter2;whiteSpace=wrap;fontSize=13;fontColor=#000000;spacing=3.8;strokeOpacity=100;strokeWidth=1;" parent="1" vertex="1">
                        <mxGeometry x="40" y="1200" width="160" height="120" as="geometry"/>
                    </mxCell>
                </UserObject>
                <mxCell id="pG1kj_97MBF_nM1RWKhJ-26" style="edgeStyle=orthogonalEdgeStyle;rounded=0;orthogonalLoop=1;jettySize=auto;html=1;entryX=0;entryY=0.5;entryDx=0;entryDy=0;strokeWidth=2;" parent="1" source="Qr3YYHrDjEiWuKODfuZc-55" target="Qr3YYHrDjEiWuKODfuZc-58" edge="1">
                    <mxGeometry relative="1" as="geometry">
                        <Array as="points">
                            <mxPoint x="220" y="1260"/>
                        </Array>
                    </mxGeometry>
                </mxCell>
                <UserObject label="Aims to show the user all of their highest order groups and ungrouped items. " lucidchartObjectId="THy3kzs44vg6" id="Qr3YYHrDjEiWuKODfuZc-55">
                    <mxCell style="html=1;overflow=block;blockSpacing=1;whiteSpace=wrap;shape=tape;size=0.2;whiteSpace=wrap;fontSize=13;fontColor=#000000;spacing=3.8;strokeOpacity=100;strokeWidth=1;" parent="1" vertex="1">
                        <mxGeometry x="20" y="1400" width="200" height="120" as="geometry"/>
                    </mxCell>
                </UserObject>
                <UserObject label="Main view" lucidchartObjectId="n3A36~SfNxBr" id="Qr3YYHrDjEiWuKODfuZc-57">
                    <mxCell style="html=1;overflow=block;blockSpacing=1;whiteSpace=wrap;;whiteSpace=wrap;fontSize=13;fontColor=#000000;spacing=3.8;strokeOpacity=0;fillOpacity=0;fillColor=#ffffff;strokeWidth=1;" parent="1" vertex="1">
                        <mxGeometry x="15" y="1335" width="105" height="45" as="geometry"/>
                    </mxCell>
                </UserObject>
                <mxCell id="o4EDMnQP66GYf_FkZdw3-55" style="edgeStyle=orthogonalEdgeStyle;rounded=0;orthogonalLoop=1;jettySize=auto;html=1;exitX=1;exitY=0.25;exitDx=0;exitDy=0;entryX=0.5;entryY=0;entryDx=0;entryDy=0;strokeColor=#000000;strokeWidth=2;" parent="1" source="Qr3YYHrDjEiWuKODfuZc-58" target="o4EDMnQP66GYf_FkZdw3-54" edge="1">
                    <mxGeometry relative="1" as="geometry"/>
                </mxCell>
                <UserObject label="Requires a list of user's entities. Above shows each data needed for one entity" lucidchartObjectId="1DB3Xz5aUWDz" id="Qr3YYHrDjEiWuKODfuZc-58">
                    <mxCell style="html=1;overflow=block;blockSpacing=1;whiteSpace=wrap;shape=hexagon;perimeter=hexagonPerimeter2;whiteSpace=wrap;fontSize=13;fontColor=#000000;spacing=3.8;strokeOpacity=100;strokeWidth=1;" parent="1" vertex="1">
                        <mxGeometry x="320" y="1200" width="160" height="120" as="geometry"/>
                    </mxCell>
                </UserObject>
                <mxCell id="fDUQa12PrsMCPkdk8ct8-1" value="&amp;lt;Any&amp;gt;Repository&lt;br&gt;[any id, this identifier is used to indicate where operations are being called]" style="shape=step;perimeter=stepPerimeter;whiteSpace=wrap;html=1;fixedSize=1;strokeWidth=1;fontSize=13;" parent="1" vertex="1">
                    <mxGeometry x="-395" y="602.5" width="265" height="110" as="geometry"/>
                </mxCell>
                <mxCell id="fDUQa12PrsMCPkdk8ct8-2" value="&lt;font style=&quot;font-size: 13px&quot;&gt;&amp;lt;Any&amp;gt;Datasource [any id, this identifier is used to indicate where operations are being called. If in a flow, and this is duplicated with the same id, it refers to the one single entitiy, unless stated otherwise.&lt;/font&gt;" style="shape=dataStorage;whiteSpace=wrap;html=1;fixedSize=1;strokeWidth=1;" parent="1" vertex="1">
                    <mxGeometry x="-510" y="737.5" width="365" height="165" as="geometry"/>
                </mxCell>
                <mxCell id="pG1kj_97MBF_nM1RWKhJ-5" value="Actual Database&lt;br&gt;(Remote or Local)" style="shape=datastore;whiteSpace=wrap;html=1;" parent="1" vertex="1">
                    <mxGeometry x="-255" y="912.5" width="125" height="110" as="geometry"/>
                </mxCell>
                <mxCell id="pG1kj_97MBF_nM1RWKhJ-14" value="Bloc component" style="shape=document;whiteSpace=wrap;html=1;boundedLbl=1;gradientColor=none;" parent="1" vertex="1">
                    <mxGeometry x="-110" y="602.5" width="120" height="80" as="geometry"/>
                </mxCell>
                <mxCell id="pG1kj_97MBF_nM1RWKhJ-32" value="&lt;font style=&quot;font-size: 13px&quot;&gt;sgId&amp;lt;String&amp;gt;&lt;br&gt;sgName&amp;lt;String&amp;gt;&lt;br&gt;sgImg&amp;lt;String&amp;gt;&lt;br&gt;&lt;/font&gt;" style="rounded=0;whiteSpace=wrap;html=1;gradientColor=none;" parent="1" vertex="1">
                    <mxGeometry x="330.75" y="1120" width="138.5" height="80" as="geometry"/>
                </mxCell>
                <mxCell id="o4EDMnQP66GYf_FkZdw3-16" value="Succesfull Operation" style="rounded=0;whiteSpace=wrap;html=1;fillColor=#d5e8d4;strokeColor=#82b366;" parent="1" vertex="1">
                    <mxGeometry x="-105" y="702.5" width="140" height="30" as="geometry"/>
                </mxCell>
                <mxCell id="o4EDMnQP66GYf_FkZdw3-17" value="Failure Operation" style="rounded=0;whiteSpace=wrap;html=1;fillColor=#f8cecc;strokeColor=#b85450;" parent="1" vertex="1">
                    <mxGeometry x="-105" y="747.5" width="140" height="30" as="geometry"/>
                </mxCell>
                <mxCell id="o4EDMnQP66GYf_FkZdw3-18" value="Operation or method [any id to show the context of this method]" style="rounded=0;whiteSpace=wrap;html=1;fillColor=#fff2cc;strokeColor=#d6b656;" parent="1" vertex="1">
                    <mxGeometry x="-105" y="797.5" width="220" height="30" as="geometry"/>
                </mxCell>
                <mxCell id="o4EDMnQP66GYf_FkZdw3-19" value="Returned data ( identifier for use only on diagrams)" style="rounded=0;whiteSpace=wrap;html=1;fillColor=#dae8fc;strokeColor=#6c8ebf;" parent="1" vertex="1">
                    <mxGeometry x="-105" y="922.5" width="200" height="30" as="geometry"/>
                </mxCell>
                <mxCell id="o4EDMnQP66GYf_FkZdw3-21" value="Some sort of explanation" style="rounded=0;whiteSpace=wrap;html=1;fillColor=#f5f5f5;strokeColor=#666666;fontColor=#333333;" parent="1" vertex="1">
                    <mxGeometry x="-105" y="982.5" width="140" height="30" as="geometry"/>
                </mxCell>
                <mxCell id="o4EDMnQP66GYf_FkZdw3-45" value="This list will only hold the highest level of SG" style="rounded=0;whiteSpace=wrap;html=1;fillColor=#f5f5f5;strokeColor=#666666;fontColor=#333333;" parent="1" vertex="1">
                    <mxGeometry x="593" y="595" width="117" height="100" as="geometry"/>
                </mxCell>
                <mxCell id="o4EDMnQP66GYf_FkZdw3-57" style="edgeStyle=orthogonalEdgeStyle;rounded=0;orthogonalLoop=1;jettySize=auto;html=1;entryX=0;entryY=0.5;entryDx=0;entryDy=0;strokeColor=#000000;strokeWidth=2;" parent="1" source="o4EDMnQP66GYf_FkZdw3-54" target="o4EDMnQP66GYf_FkZdw3-56" edge="1">
                    <mxGeometry relative="1" as="geometry">
                        <Array as="points">
                            <mxPoint x="840" y="1260"/>
                            <mxPoint x="840" y="1259"/>
                        </Array>
                    </mxGeometry>
                </mxCell>
                <mxCell id="o4EDMnQP66GYf_FkZdw3-54" value="ListBloc" style="shape=document;whiteSpace=wrap;html=1;boundedLbl=1;gradientColor=none;" parent="1" vertex="1">
                    <mxGeometry x="600" y="1200" width="160" height="120" as="geometry"/>
                </mxCell>
                <mxCell id="o4EDMnQP66GYf_FkZdw3-63" style="edgeStyle=orthogonalEdgeStyle;rounded=0;orthogonalLoop=1;jettySize=auto;html=1;entryX=0;entryY=0.5;entryDx=0;entryDy=0;strokeColor=#000000;strokeWidth=2;" parent="1" source="o4EDMnQP66GYf_FkZdw3-56" target="o4EDMnQP66GYf_FkZdw3-59" edge="1">
                    <mxGeometry relative="1" as="geometry"/>
                </mxCell>
                <mxCell id="o4EDMnQP66GYf_FkZdw3-56" value="CabinetRepository&lt;br&gt;[CR]" style="shape=step;perimeter=stepPerimeter;whiteSpace=wrap;html=1;fixedSize=1;strokeWidth=1;fontSize=13;" parent="1" vertex="1">
                    <mxGeometry x="920" y="1199" width="200" height="120" as="geometry"/>
                </mxCell>
                <mxCell id="o4EDMnQP66GYf_FkZdw3-58" value="&lt;font style=&quot;font-size: 11px&quot;&gt;execGetAllListSG()&lt;/font&gt;" style="rounded=0;whiteSpace=wrap;html=1;fillColor=#fff2cc;strokeColor=#d6b656;" parent="1" vertex="1">
                    <mxGeometry x="780" y="1229" width="120" height="30" as="geometry"/>
                </mxCell>
                <mxCell id="yysP_wmazcGBHdvuS0tV-3" style="edgeStyle=orthogonalEdgeStyle;rounded=0;orthogonalLoop=1;jettySize=auto;html=1;entryX=0.5;entryY=0;entryDx=0;entryDy=0;entryPerimeter=0;strokeWidth=2;" parent="1" source="o4EDMnQP66GYf_FkZdw3-59" target="yysP_wmazcGBHdvuS0tV-2" edge="1">
                    <mxGeometry relative="1" as="geometry"/>
                </mxCell>
                <mxCell id="o4EDMnQP66GYf_FkZdw3-59" value="NetworkCubit / Bloc&lt;br&gt;[NC]" style="shape=document;whiteSpace=wrap;html=1;boundedLbl=1;gradientColor=none;" parent="1" vertex="1">
                    <mxGeometry x="1280" y="1200" width="160" height="120" as="geometry"/>
                </mxCell>
                <mxCell id="o4EDMnQP66GYf_FkZdw3-61" value="Either&amp;lt;Failure,&lt;br&gt;List&amp;lt;StoraygeGroup&lt;br&gt;Snippet&amp;gt;&lt;br&gt;getAllListSGSnip()" style="rounded=0;whiteSpace=wrap;html=1;fillColor=#fff2cc;strokeColor=#d6b656;" parent="1" vertex="1">
                    <mxGeometry x="1130" y="1150" width="130" height="109" as="geometry"/>
                </mxCell>
                <mxCell id="yysP_wmazcGBHdvuS0tV-6" style="edgeStyle=orthogonalEdgeStyle;rounded=0;orthogonalLoop=1;jettySize=auto;html=1;strokeWidth=2;entryX=0.5;entryY=0;entryDx=0;entryDy=0;" parent="1" source="o4EDMnQP66GYf_FkZdw3-64" target="yysP_wmazcGBHdvuS0tV-12" edge="1">
                    <mxGeometry relative="1" as="geometry">
                        <mxPoint x="1360" y="1880" as="targetPoint"/>
                    </mxGeometry>
                </mxCell>
                <mxCell id="o4EDMnQP66GYf_FkZdw3-64" value="CabinetRemoteDatasource&lt;br&gt;[CRD]" style="shape=dataStorage;whiteSpace=wrap;html=1;fixedSize=1;strokeWidth=1;fontSize=13;" parent="1" vertex="1">
                    <mxGeometry x="1240" y="1600" width="240" height="80" as="geometry"/>
                </mxCell>
                <mxCell id="o4EDMnQP66GYf_FkZdw3-66" value="Connected" style="rounded=0;whiteSpace=wrap;html=1;fillColor=#d5e8d4;strokeColor=#82b366;" parent="1" vertex="1">
                    <mxGeometry x="1360" y="1530" width="90" height="30" as="geometry"/>
                </mxCell>
                <mxCell id="yysP_wmazcGBHdvuS0tV-5" style="edgeStyle=orthogonalEdgeStyle;rounded=0;orthogonalLoop=1;jettySize=auto;html=1;entryX=0.5;entryY=0;entryDx=0;entryDy=0;strokeWidth=2;" parent="1" source="yysP_wmazcGBHdvuS0tV-2" target="o4EDMnQP66GYf_FkZdw3-64" edge="1">
                    <mxGeometry relative="1" as="geometry"/>
                </mxCell>
                <mxCell id="yysP_wmazcGBHdvuS0tV-14" style="edgeStyle=orthogonalEdgeStyle;rounded=0;orthogonalLoop=1;jettySize=auto;html=1;strokeWidth=2;fillColor=#f8cecc;entryX=0.5;entryY=0;entryDx=0;entryDy=0;" parent="1" source="yysP_wmazcGBHdvuS0tV-2" target="07Gm7MyU37ctWeQiLfTc-2" edge="1">
                    <mxGeometry relative="1" as="geometry">
                        <Array as="points">
                            <mxPoint x="1840" y="1460"/>
                        </Array>
                        <mxPoint x="1690" y="1600" as="targetPoint"/>
                    </mxGeometry>
                </mxCell>
                <mxCell id="yysP_wmazcGBHdvuS0tV-2" value="isConnected&amp;lt;bool&amp;gt;" style="strokeWidth=1;html=1;shape=mxgraph.flowchart.decision;whiteSpace=wrap;" parent="1" vertex="1">
                    <mxGeometry x="1280" y="1400" width="160" height="120" as="geometry"/>
                </mxCell>
                <mxCell id="yysP_wmazcGBHdvuS0tV-7" value="getAllListSGFromRemote() [CRD]" style="rounded=0;whiteSpace=wrap;html=1;fillColor=#fff2cc;strokeColor=#d6b656;" parent="1" vertex="1">
                    <mxGeometry x="1360" y="1710" width="230" height="30" as="geometry"/>
                </mxCell>
                <mxCell id="yysP_wmazcGBHdvuS0tV-10" value="Not connected" style="rounded=0;whiteSpace=wrap;html=1;fillColor=#f8cecc;strokeColor=#b85450;" parent="1" vertex="1">
                    <mxGeometry x="1740" y="1530" width="100" height="30" as="geometry"/>
                </mxCell>
                <mxCell id="yysP_wmazcGBHdvuS0tV-11" value="Should retrieve &lt;br&gt;&amp;lt;sgId&amp;gt;, &amp;lt;sgName&amp;gt;, &amp;lt;sgImgPath&amp;gt;&lt;br&gt;from sgAllList in management collection" style="rounded=0;whiteSpace=wrap;html=1;fillColor=#f5f5f5;strokeColor=#666666;fontColor=#333333;" parent="1" vertex="1">
                    <mxGeometry x="1360" y="1739" width="230" height="102" as="geometry"/>
                </mxCell>
                <mxCell id="yysP_wmazcGBHdvuS0tV-34" style="edgeStyle=orthogonalEdgeStyle;rounded=0;orthogonalLoop=1;jettySize=auto;html=1;strokeWidth=2;" parent="1" source="yysP_wmazcGBHdvuS0tV-21" target="yysP_wmazcGBHdvuS0tV-33" edge="1">
                    <mxGeometry relative="1" as="geometry"/>
                </mxCell>
                <mxCell id="yysP_wmazcGBHdvuS0tV-21" value="CabinetRemoteDatasource&lt;br&gt;[CRD]" style="shape=dataStorage;whiteSpace=wrap;html=1;fixedSize=1;strokeWidth=1;fontSize=13;" parent="1" vertex="1">
                    <mxGeometry x="1240" y="2199" width="240" height="80" as="geometry"/>
                </mxCell>
                <mxCell id="yysP_wmazcGBHdvuS0tV-24" style="edgeStyle=orthogonalEdgeStyle;rounded=0;orthogonalLoop=1;jettySize=auto;html=1;strokeWidth=2;" parent="1" source="yysP_wmazcGBHdvuS0tV-22" target="yysP_wmazcGBHdvuS0tV-21" edge="1">
                    <mxGeometry relative="1" as="geometry"/>
                </mxCell>
                <mxCell id="yysP_wmazcGBHdvuS0tV-22" value="" style="rounded=0;whiteSpace=wrap;html=1;strokeWidth=1;fillColor=#d5e8d4;strokeColor=#82b366;" parent="1" vertex="1">
                    <mxGeometry x="1340" y="2039" width="40" height="40" as="geometry"/>
                </mxCell>
                <mxCell id="yysP_wmazcGBHdvuS0tV-26" style="edgeStyle=orthogonalEdgeStyle;rounded=0;orthogonalLoop=1;jettySize=auto;html=1;strokeWidth=2;entryX=0.5;entryY=1;entryDx=0;entryDy=0;fillColor=#f8cecc;strokeColor=#b85450;" parent="1" source="yysP_wmazcGBHdvuS0tV-23" target="yysP_wmazcGBHdvuS0tV-27" edge="1">
                    <mxGeometry relative="1" as="geometry">
                        <mxPoint x="1200" y="1660" as="targetPoint"/>
                        <Array as="points">
                            <mxPoint x="1480" y="2059"/>
                            <mxPoint x="1480" y="1980"/>
                            <mxPoint x="1220" y="1980"/>
                        </Array>
                    </mxGeometry>
                </mxCell>
                <mxCell id="yysP_wmazcGBHdvuS0tV-23" value="" style="rounded=0;whiteSpace=wrap;html=1;strokeWidth=1;fillColor=#f8cecc;strokeColor=#b85450;" parent="1" vertex="1">
                    <mxGeometry x="1380" y="2039" width="40" height="40" as="geometry"/>
                </mxCell>
                <mxCell id="yysP_wmazcGBHdvuS0tV-25" value="JSON Map [abc]&lt;span style=&quot;color: rgba(0 , 0 , 0 , 0) ; font-family: monospace ; font-size: 0px&quot;&gt;%3CmxGraphModel%3E%3Croot%3E%3CmxCell%20id%3D%220%22%2F%3E%3CmxCell%20id%3D%221%22%20parent%3D%220%22%2F%3E%3CmxCell%20id%3D%222%22%20value%3D%22CabinetRepository%26lt%3Bbr%26gt%3B%5BCR%5D%22%20style%3D%22shape%3Dstep%3Bperimeter%3DstepPerimeter%3BwhiteSpace%3Dwrap%3Bhtml%3D1%3BfixedSize%3D1%3BstrokeWidth%3D1%3BfontSize%3D13%3B%22%20vertex%3D%221%22%20parent%3D%221%22%3E%3CmxGeometry%20x%3D%22920%22%20y%3D%221199%22%20width%3D%22200%22%20height%3D%22120%22%20as%3D%22geometry%22%2F%3E%3C%2FmxCell%3E%3C%2Froot%3E%3C%2FmxGraphModel%3E&lt;/span&gt;" style="rounded=0;whiteSpace=wrap;html=1;fillColor=#dae8fc;strokeColor=#6c8ebf;" parent="1" vertex="1">
                    <mxGeometry x="1360" y="2119" width="100" height="40" as="geometry"/>
                </mxCell>
                <mxCell id="yysP_wmazcGBHdvuS0tV-30" style="edgeStyle=orthogonalEdgeStyle;rounded=0;orthogonalLoop=1;jettySize=auto;html=1;entryX=1;entryY=0.5;entryDx=0;entryDy=0;strokeWidth=2;fillColor=#f8cecc;strokeColor=#b85450;" parent="1" source="yysP_wmazcGBHdvuS0tV-27" target="yysP_wmazcGBHdvuS0tV-29" edge="1">
                    <mxGeometry relative="1" as="geometry">
                        <Array as="points">
                            <mxPoint x="1220" y="1339"/>
                        </Array>
                    </mxGeometry>
                </mxCell>
                <mxCell id="yysP_wmazcGBHdvuS0tV-27" value="" style="rounded=0;whiteSpace=wrap;html=1;strokeWidth=1;fillColor=#f8cecc;strokeColor=#b85450;" parent="1" vertex="1">
                    <mxGeometry x="1200" y="1620" width="40" height="40" as="geometry"/>
                </mxCell>
                <mxCell id="yysP_wmazcGBHdvuS0tV-12" value="Remote Database&lt;br&gt;(Firestore)" style="shape=datastore;whiteSpace=wrap;html=1;" parent="1" vertex="1">
                    <mxGeometry x="1280" y="1919" width="160" height="120" as="geometry"/>
                </mxCell>
                <mxCell id="yysP_wmazcGBHdvuS0tV-28" value="Throws FirebaseException" style="rounded=0;whiteSpace=wrap;html=1;fillColor=#f8cecc;strokeColor=#b85450;fontColor=#000000;" parent="1" vertex="1">
                    <mxGeometry x="1480" y="2000" width="170" height="30" as="geometry"/>
                </mxCell>
                <mxCell id="yysP_wmazcGBHdvuS0tV-31" style="edgeStyle=orthogonalEdgeStyle;rounded=0;orthogonalLoop=1;jettySize=auto;html=1;entryX=0.75;entryY=0.75;entryDx=0;entryDy=0;entryPerimeter=0;strokeWidth=2;fillColor=#f8cecc;strokeColor=#b85450;" parent="1" source="yysP_wmazcGBHdvuS0tV-29" target="o4EDMnQP66GYf_FkZdw3-54" edge="1">
                    <mxGeometry relative="1" as="geometry">
                        <Array as="points">
                            <mxPoint x="720" y="1339"/>
                        </Array>
                    </mxGeometry>
                </mxCell>
                <mxCell id="yysP_wmazcGBHdvuS0tV-29" value="" style="rounded=0;whiteSpace=wrap;html=1;strokeWidth=1;fillColor=#f8cecc;strokeColor=#b85450;" parent="1" vertex="1">
                    <mxGeometry x="1000" y="1319" width="40" height="40" as="geometry"/>
                </mxCell>
                <mxCell id="yysP_wmazcGBHdvuS0tV-32" value="Left(FirebaseFirestoreFailure)" style="rounded=0;whiteSpace=wrap;html=1;fillColor=#f8cecc;strokeColor=#b85450;" parent="1" vertex="1">
                    <mxGeometry x="770" y="1339" width="170" height="30" as="geometry"/>
                </mxCell>
                <mxCell id="yysP_wmazcGBHdvuS0tV-38" style="edgeStyle=orthogonalEdgeStyle;rounded=0;orthogonalLoop=1;jettySize=auto;html=1;entryX=0.5;entryY=0;entryDx=0;entryDy=0;strokeWidth=2;" parent="1" source="yysP_wmazcGBHdvuS0tV-33" target="yysP_wmazcGBHdvuS0tV-37" edge="1">
                    <mxGeometry relative="1" as="geometry"/>
                </mxCell>
                <mxCell id="yysP_wmazcGBHdvuS0tV-33" value="CabinetRepository&lt;br&gt;[CR]" style="shape=step;perimeter=stepPerimeter;whiteSpace=wrap;html=1;fixedSize=1;strokeWidth=1;fontSize=13;" parent="1" vertex="1">
                    <mxGeometry x="1241" y="2400" width="239" height="120" as="geometry"/>
                </mxCell>
                <mxCell id="yysP_wmazcGBHdvuS0tV-35" value="JSON Map [abc]&lt;span style=&quot;color: rgba(0 , 0 , 0 , 0) ; font-family: monospace ; font-size: 0px&quot;&gt;%3CmxGraphModel%3E%3Croot%3E%3CmxCell%20id%3D%220%22%2F%3E%3CmxCell%20id%3D%221%22%20parent%3D%220%22%2F%3E%3CmxCell%20id%3D%222%22%20value%3D%22CabinetRepository%26lt%3Bbr%26gt%3B%5BCR%5D%22%20style%3D%22shape%3Dstep%3Bperimeter%3DstepPerimeter%3BwhiteSpace%3Dwrap%3Bhtml%3D1%3BfixedSize%3D1%3BstrokeWidth%3D1%3BfontSize%3D13%3B%22%20vertex%3D%221%22%20parent%3D%221%22%3E%3CmxGeometry%20x%3D%22920%22%20y%3D%221199%22%20width%3D%22200%22%20height%3D%22120%22%20as%3D%22geometry%22%2F%3E%3C%2FmxCell%3E%3C%2Froot%3E%3C%2FmxGraphModel%3E&lt;/span&gt;" style="rounded=0;whiteSpace=wrap;html=1;fillColor=#dae8fc;strokeColor=#6c8ebf;" parent="1" vertex="1">
                    <mxGeometry x="1360" y="2320" width="100" height="40" as="geometry"/>
                </mxCell>
                <mxCell id="yysP_wmazcGBHdvuS0tV-42" style="edgeStyle=orthogonalEdgeStyle;rounded=0;orthogonalLoop=1;jettySize=auto;html=1;strokeWidth=2;" parent="1" source="yysP_wmazcGBHdvuS0tV-37" edge="1">
                    <mxGeometry relative="1" as="geometry">
                        <mxPoint x="1359" y="2920" as="targetPoint"/>
                        <Array as="points">
                            <mxPoint x="1360" y="2900"/>
                            <mxPoint x="1359" y="2900"/>
                        </Array>
                    </mxGeometry>
                </mxCell>
                <mxCell id="yysP_wmazcGBHdvuS0tV-37" value="CabinetLocalDatasource&lt;br&gt;[CLD]" style="shape=dataStorage;whiteSpace=wrap;html=1;fixedSize=1;strokeWidth=1;fontSize=13;" parent="1" vertex="1">
                    <mxGeometry x="1240" y="2720" width="240" height="80" as="geometry"/>
                </mxCell>
                <mxCell id="yysP_wmazcGBHdvuS0tV-39" value="JSON Map [abc]&lt;span style=&quot;color: rgba(0 , 0 , 0 , 0) ; font-family: monospace ; font-size: 0px&quot;&gt;%3CmxGraphModel%3E%3Croot%3E%3CmxCell%20id%3D%220%22%2F%3E%3CmxCell%20id%3D%221%22%20parent%3D%220%22%2F%3E%3CmxCell%20id%3D%222%22%20value%3D%22CabinetRepository%26lt%3Bbr%26gt%3B%5BCR%5D%22%20style%3D%22shape%3Dstep%3Bperimeter%3DstepPerimeter%3BwhiteSpace%3Dwrap%3Bhtml%3D1%3BfixedSize%3D1%3BstrokeWidth%3D1%3BfontSize%3D13%3B%22%20vertex%3D%221%22%20parent%3D%221%22%3E%3CmxGeometry%20x%3D%22920%22%20y%3D%221199%22%20width%3D%22200%22%20height%3D%22120%22%20as%3D%22geometry%22%2F%3E%3C%2FmxCell%3E%3C%2Froot%3E%3C%2FmxGraphModel%3E&lt;/span&gt;" style="rounded=0;whiteSpace=wrap;html=1;fillColor=#dae8fc;strokeColor=#6c8ebf;" parent="1" vertex="1">
                    <mxGeometry x="1360" y="2640" width="100" height="40" as="geometry"/>
                </mxCell>
                <mxCell id="yysP_wmazcGBHdvuS0tV-40" value="getAllListSG()&lt;br&gt;&amp;nbsp;{&lt;br&gt;storeAllListSG()&lt;br&gt;}" style="rounded=0;whiteSpace=wrap;html=1;fillColor=#fff2cc;strokeColor=#d6b656;" parent="1" vertex="1">
                    <mxGeometry x="1360" y="2560" width="240" height="80" as="geometry"/>
                </mxCell>
                <mxCell id="yysP_wmazcGBHdvuS0tV-43" style="edgeStyle=orthogonalEdgeStyle;rounded=0;orthogonalLoop=1;jettySize=auto;html=1;strokeWidth=2;entryX=1;entryY=0.5;entryDx=0;entryDy=0;fillColor=#f8cecc;strokeColor=#b85450;" parent="1" source="yysP_wmazcGBHdvuS0tV-41" target="yysP_wmazcGBHdvuS0tV-44" edge="1">
                    <mxGeometry relative="1" as="geometry">
                        <mxPoint x="1160" y="1670" as="targetPoint"/>
                        <Array as="points">
                            <mxPoint x="1180" y="3020"/>
                            <mxPoint x="1180" y="1379"/>
                        </Array>
                    </mxGeometry>
                </mxCell>
                <mxCell id="yysP_wmazcGBHdvuS0tV-41" value="Local Database&lt;br&gt;(Hive and Files)" style="shape=datastore;whiteSpace=wrap;html=1;" parent="1" vertex="1">
                    <mxGeometry x="1279" y="2960" width="160" height="120" as="geometry"/>
                </mxCell>
                <mxCell id="yysP_wmazcGBHdvuS0tV-47" style="edgeStyle=orthogonalEdgeStyle;rounded=0;orthogonalLoop=1;jettySize=auto;html=1;strokeWidth=2;fillColor=#f8cecc;strokeColor=#b85450;" parent="1" source="yysP_wmazcGBHdvuS0tV-44" edge="1">
                    <mxGeometry relative="1" as="geometry">
                        <mxPoint x="720" y="1290" as="targetPoint"/>
                    </mxGeometry>
                </mxCell>
                <mxCell id="yysP_wmazcGBHdvuS0tV-44" value="" style="rounded=0;whiteSpace=wrap;html=1;strokeWidth=1;fillColor=#f8cecc;strokeColor=#b85450;" parent="1" vertex="1">
                    <mxGeometry x="1000" y="1359" width="40" height="40" as="geometry"/>
                </mxCell>
                <mxCell id="yysP_wmazcGBHdvuS0tV-45" value="Throws &amp;lt;Any&amp;gt;Exception" style="rounded=0;whiteSpace=wrap;html=1;fillColor=#f8cecc;strokeColor=#b85450;" parent="1" vertex="1">
                    <mxGeometry x="1179" y="2880" width="170" height="30" as="geometry"/>
                </mxCell>
                <mxCell id="yysP_wmazcGBHdvuS0tV-48" value="Left(LocalDatasourceFailure)" style="rounded=0;whiteSpace=wrap;html=1;fillColor=#f8cecc;strokeColor=#b85450;" parent="1" vertex="1">
                    <mxGeometry x="770" y="1380" width="170" height="30" as="geometry"/>
                </mxCell>
                <UserObject label="sgImgPath &amp;lt;String&amp;gt;" lucidchartObjectId="MyC3wRzRbQ.4" id="yysP_wmazcGBHdvuS0tV-55">
                    <mxCell style="html=1;overflow=block;blockSpacing=1;whiteSpace=wrap;;whiteSpace=wrap;fontSize=13;align=left;spacing=3.8;strokeOpacity=0;fillOpacity=0;strokeWidth=1;rounded=1;" parent="1" vertex="1">
                        <mxGeometry x="760" y="675" width="179.5" height="30" as="geometry"/>
                    </mxCell>
                </UserObject>
                <UserObject label="sgImgPath &amp;lt;String&amp;gt;" lucidchartObjectId="_ry3LpoxDpER" id="yysP_wmazcGBHdvuS0tV-56">
                    <mxCell style="html=1;overflow=block;blockSpacing=1;whiteSpace=wrap;;whiteSpace=wrap;fontSize=13;align=left;spacing=3.8;strokeOpacity=0;fillOpacity=0;strokeWidth=1;rounded=1;" parent="1" vertex="1">
                        <mxGeometry x="660" y="280" width="150" height="40" as="geometry"/>
                    </mxCell>
                </UserObject>
                <UserObject label="sgImgId &amp;lt;String&amp;gt;" lucidchartObjectId="_ry3LpoxDpER" id="yysP_wmazcGBHdvuS0tV-57">
                    <mxCell style="html=1;overflow=block;blockSpacing=1;whiteSpace=wrap;;whiteSpace=wrap;fontSize=13;align=left;spacing=3.8;strokeOpacity=0;fillOpacity=0;strokeWidth=1;rounded=1;" parent="1" vertex="1">
                        <mxGeometry x="660" y="310" width="150" height="40" as="geometry"/>
                    </mxCell>
                </UserObject>
                <mxCell id="yysP_wmazcGBHdvuS0tV-65" value="Used to show different choices in flow" style="rounded=0;whiteSpace=wrap;html=1;fillColor=#ffe6cc;strokeColor=#d79b00;" parent="1" vertex="1">
                    <mxGeometry x="-105" y="857.5" width="220" height="30" as="geometry"/>
                </mxCell>
                <mxCell id="yysP_wmazcGBHdvuS0tV-85" style="edgeStyle=orthogonalEdgeStyle;rounded=0;orthogonalLoop=1;jettySize=auto;html=1;entryX=0.507;entryY=0.847;entryDx=0;entryDy=0;entryPerimeter=0;strokeWidth=2;" parent="1" source="yysP_wmazcGBHdvuS0tV-71" target="o4EDMnQP66GYf_FkZdw3-54" edge="1">
                    <mxGeometry relative="1" as="geometry"/>
                </mxCell>
                <mxCell id="yysP_wmazcGBHdvuS0tV-71" value="CabinetRepository&lt;br&gt;[CR]" style="shape=step;perimeter=stepPerimeter;whiteSpace=wrap;html=1;fixedSize=1;strokeWidth=1;fontSize=13;" parent="1" vertex="1">
                    <mxGeometry x="1200" y="3280" width="239" height="120" as="geometry"/>
                </mxCell>
                <mxCell id="yysP_wmazcGBHdvuS0tV-8" value="Expects a List&amp;lt;StoraygeGroup&lt;br&gt;Snippet&amp;gt;&lt;br&gt;which contain&lt;br&gt;sgName,&lt;br&gt;sgId,&lt;br&gt;sgImgPath," style="rounded=0;whiteSpace=wrap;html=1;fillColor=#f5f5f5;strokeColor=#666666;fontColor=#333333;" parent="1" vertex="1">
                    <mxGeometry x="1130" y="1259" width="130" height="161" as="geometry"/>
                </mxCell>
                <mxCell id="yysP_wmazcGBHdvuS0tV-79" value="storeAllListSG()" style="rounded=0;whiteSpace=wrap;html=1;fillColor=#fff2cc;strokeColor=#d6b656;" parent="1" vertex="1">
                    <mxGeometry x="1360" y="2830" width="150" height="30" as="geometry"/>
                </mxCell>
                <mxCell id="yysP_wmazcGBHdvuS0tV-86" value="Right(List&amp;lt;StoraygeGroup.snippet&amp;gt;)&lt;br&gt;sgId,&lt;br&gt;sgName,&lt;br&gt;sgImgPath" style="rounded=0;whiteSpace=wrap;html=1;fillColor=#dae8fc;strokeColor=#6c8ebf;" parent="1" vertex="1">
                    <mxGeometry x="880" y="3230" width="240" height="110" as="geometry"/>
                </mxCell>
                <mxCell id="yysP_wmazcGBHdvuS0tV-94" style="edgeStyle=orthogonalEdgeStyle;rounded=0;orthogonalLoop=1;jettySize=auto;html=1;entryX=1;entryY=0.5;entryDx=0;entryDy=0;strokeWidth=2;" parent="1" source="yysP_wmazcGBHdvuS0tV-93" target="yysP_wmazcGBHdvuS0tV-71" edge="1">
                    <mxGeometry relative="1" as="geometry">
                        <Array as="points">
                            <mxPoint x="1459" y="2940"/>
                            <mxPoint x="1459" y="3340"/>
                        </Array>
                    </mxGeometry>
                </mxCell>
                <mxCell id="yysP_wmazcGBHdvuS0tV-93" value="" style="rounded=0;whiteSpace=wrap;html=1;strokeWidth=1;fillColor=#d5e8d4;strokeColor=#82b366;" parent="1" vertex="1">
                    <mxGeometry x="1339" y="2920" width="40" height="40" as="geometry"/>
                </mxCell>
                <mxCell id="yysP_wmazcGBHdvuS0tV-95" value="Actual Database&lt;br&gt;(Remote or Local)" style="shape=datastore;whiteSpace=wrap;html=1;" parent="1" vertex="1">
                    <mxGeometry x="2670" y="1390" width="125" height="110" as="geometry"/>
                </mxCell>
                <mxCell id="07Gm7MyU37ctWeQiLfTc-3" style="edgeStyle=orthogonalEdgeStyle;rounded=0;orthogonalLoop=1;jettySize=auto;html=1;strokeColor=#000000;strokeWidth=2;" parent="1" source="07Gm7MyU37ctWeQiLfTc-2" edge="1">
                    <mxGeometry relative="1" as="geometry">
                        <mxPoint x="2080" y="1640" as="targetPoint"/>
                    </mxGeometry>
                </mxCell>
                <mxCell id="07Gm7MyU37ctWeQiLfTc-7" style="edgeStyle=orthogonalEdgeStyle;rounded=0;orthogonalLoop=1;jettySize=auto;html=1;strokeColor=#000000;strokeWidth=2;entryX=0.5;entryY=0;entryDx=0;entryDy=0;" parent="1" source="07Gm7MyU37ctWeQiLfTc-2" target="07Gm7MyU37ctWeQiLfTc-6" edge="1">
                    <mxGeometry relative="1" as="geometry">
                        <mxPoint x="1840" y="1910" as="targetPoint"/>
                    </mxGeometry>
                </mxCell>
                <mxCell id="07Gm7MyU37ctWeQiLfTc-2" value="CabinetLocalDatasource&lt;br&gt;[CLD]" style="shape=dataStorage;whiteSpace=wrap;html=1;fixedSize=1;strokeWidth=1;fontSize=13;" parent="1" vertex="1">
                    <mxGeometry x="1720" y="1600" width="240" height="80" as="geometry"/>
                </mxCell>
                <mxCell id="07Gm7MyU37ctWeQiLfTc-4" value="This would be used for potential improvements" style="strokeWidth=1;html=1;shape=mxgraph.flowchart.loop_limit;whiteSpace=wrap;" parent="1" vertex="1">
                    <mxGeometry x="35" y="600" width="125" height="72.5" as="geometry"/>
                </mxCell>
                <mxCell id="07Gm7MyU37ctWeQiLfTc-5" value="Might communicate with a global ConnectionIndicator&lt;br&gt;to show the user that they are disconnected" style="strokeWidth=1;html=1;shape=mxgraph.flowchart.loop_limit;whiteSpace=wrap;" parent="1" vertex="1">
                    <mxGeometry x="2080" y="1600" width="160" height="80" as="geometry"/>
                </mxCell>
                <mxCell id="07Gm7MyU37ctWeQiLfTc-6" value="Remote Database&lt;br&gt;(Firestore)" style="shape=datastore;whiteSpace=wrap;html=1;" parent="1" vertex="1">
                    <mxGeometry x="1760" y="1919" width="160" height="120" as="geometry"/>
                </mxCell>
                <mxCell id="2" value="This list holds all the snippets of SG within this SG" style="rounded=0;whiteSpace=wrap;html=1;fillColor=#f5f5f5;strokeColor=#666666;fontColor=#333333;" parent="1" vertex="1">
                    <mxGeometry x="500" y="255" width="117" height="100" as="geometry"/>
                </mxCell>
                <mxCell id="3" value="This will have the added field&lt;br&gt;runtimeType : &quot;snippet&quot;" style="rounded=0;whiteSpace=wrap;html=1;fillColor=#f5f5f5;strokeColor=#666666;fontColor=#333333;" parent="1" vertex="1">
                    <mxGeometry x="270" y="682.5" width="167" height="55" as="geometry"/>
                </mxCell>
            </root>
        </mxGraphModel>
    </diagram>
</mxfile>